<?xml version="1.0" standalone="no"?>
<!DOCTYPE svg PUBLIC "-//W3C//DTD SVG 20010904//EN"
 "http://www.w3.org/TR/2001/REC-SVG-20010904/DTD/svg10.dtd">
<svg version="1.0" xmlns="http://www.w3.org/2000/svg"
 width="512.000000pt" height="512.000000pt" viewBox="0 0 512.000000 512.000000"
 preserveAspectRatio="xMidYMid meet">

<g transform="translate(0.000000,512.000000) scale(0.100000,-0.100000)"
fill="#000000" stroke="none">
<path d="M2142 5109 c-78 -10 -174 -61 -222 -117 -55 -65 -472 -676 -504 -740
-52 -104 -56 -139 -56 -623 l0 -447 -140 -117 c-147 -124 -199 -183 -248 -280
-76 -151 -80 -212 -47 -625 30 -378 31 -385 100 -385 29 0 42 6 57 26 20 26
20 29 -7 369 -31 383 -29 425 24 537 39 81 80 128 196 225 979 822 1528 1277
1564 1296 31 15 62 22 100 22 191 -1 298 -215 184 -368 -37 -50 -849 -725
-888 -739 -54 -18 -104 -57 -327 -253 -191 -166 -208 -184 -208 -214 0 -39 35
-76 72 -76 30 0 28 -2 280 218 103 89 203 169 222 177 50 21 107 18 154 -7 23
-13 185 -146 361 -295 353 -301 361 -311 361 -416 0 -96 -42 -167 -123 -208
l-38 -20 -52 44 c-29 24 -132 111 -230 194 -98 83 -199 161 -225 173 -96 46
-231 35 -318 -24 -19 -12 -130 -107 -249 -210 -202 -176 -215 -189 -215 -222
0 -42 29 -74 69 -74 35 0 39 3 352 278 64 56 133 109 153 117 48 20 104 19
147 -3 20 -10 183 -143 362 -296 360 -307 367 -315 367 -423 0 -74 -25 -129
-79 -175 -71 -60 -170 -74 -251 -34 -19 9 -127 95 -240 191 -168 144 -209 175
-235 175 -25 0 -45 -14 -108 -78 -86 -87 -95 -114 -52 -157 35 -36 68 -32 119
15 24 22 45 40 48 40 2 0 80 -65 173 -145 106 -91 194 -157 235 -177 59 -30
72 -33 160 -33 82 0 103 4 152 27 76 35 153 109 192 183 29 56 31 67 31 165 0
99 -2 110 -33 172 -21 44 -51 84 -88 117 l-55 51 59 55 c78 72 115 150 120
256 8 163 -32 231 -243 411 -124 106 -155 137 -151 153 2 11 39 197 81 414 77
392 77 394 108 420 96 78 160 149 190 210 29 59 32 75 33 161 l2 95 53 22
c142 58 253 28 294 -81 14 -38 13 -73 -24 -508 -26 -323 -36 -482 -30 -512 4
-25 51 -134 103 -243 143 -302 179 -438 179 -678 -1 -219 -32 -350 -144 -602
-32 -74 -59 -142 -59 -152 0 -31 39 -71 69 -71 48 0 67 26 135 180 111 252
149 415 149 645 0 151 -11 239 -48 380 -30 112 -56 177 -152 374 -41 86 -79
168 -83 182 -5 16 8 213 31 490 42 504 42 533 -5 614 -32 54 -97 112 -153 137
-90 40 -189 34 -320 -18 l-64 -26 -50 47 c-27 25 -75 58 -107 73 -50 24 -69
27 -157 27 -89 0 -106 -3 -155 -27 -34 -17 -178 -129 -360 -282 l-305 -255 -3
58 c-3 58 -2 61 68 167 57 86 70 113 65 133 -8 34 -41 61 -74 61 -34 0 -60
-27 -142 -150 l-64 -95 -3 -153 -3 -153 -232 -193 -232 -194 -3 379 c-2 372
-2 381 21 447 30 90 480 750 535 787 119 78 276 36 337 -90 23 -47 27 -65 23
-119 -3 -58 -9 -72 -66 -158 -34 -52 -62 -104 -62 -116 0 -29 42 -72 70 -72
39 0 61 20 121 112 67 103 89 165 89 254 0 231 -206 406 -438 373z m703 -1918
c-30 -150 -56 -275 -58 -277 -2 -2 -50 36 -108 84 -57 49 -121 100 -141 113
l-37 25 197 166 c108 91 198 165 199 164 1 -1 -22 -125 -52 -275z"/>
<path d="M3200 5100 c-29 -29 -32 -51 -28 -233 3 -156 4 -168 25 -188 27 -27
75 -29 103 -4 19 17 20 30 20 210 0 187 -1 192 -23 213 -29 27 -71 28 -97 2z"/>
<path d="M3733 4990 c-25 -10 -43 -37 -136 -206 -37 -67 -67 -131 -67 -143 0
-30 43 -71 75 -71 14 0 36 10 48 23 38 37 177 301 177 334 0 47 -52 81 -97 63z"/>
<path d="M3974 4547 c-155 -96 -182 -123 -170 -170 7 -31 58 -61 87 -52 33 11
293 175 312 197 9 11 17 31 17 45 0 31 -42 73 -73 73 -13 0 -91 -42 -173 -93z"/>
<path d="M1005 1578 c-26 -20 -27 -25 -22 -82 14 -146 85 -334 179 -476 30
-47 126 -173 211 -280 l156 -194 3 -247 c3 -226 5 -249 22 -268 25 -27 86 -29
109 -3 15 16 17 52 17 294 l0 275 -182 229 c-101 127 -195 248 -210 270 -71
109 -139 283 -154 395 -5 39 -15 61 -35 81 -33 34 -57 35 -94 6z"/>
<path d="M3607 1128 c-9 -7 -61 -114 -117 -236 l-100 -224 0 -313 0 -314 26
-20 c43 -34 86 -26 109 20 12 23 15 82 15 311 l0 284 95 211 c52 117 95 218
95 226 0 8 -9 26 -21 41 -23 29 -73 36 -102 14z"/>
</g>
</svg>
